<?xml version="1.0" encoding="UTF-8"?>
<!DOCTYPE svg PUBLIC "-//W3C//DTD SVG 1.1//EN" "http://www.w3.org/Graphics/SVG/1.1/DTD/svg11.dtd">
<!-- Creator: CorelDRAW X8 -->
<svg xmlns="http://www.w3.org/2000/svg" xml:space="preserve" width="70mm" height="23mm" version="1.1" style="shape-rendering:geometricPrecision; text-rendering:geometricPrecision; image-rendering:optimizeQuality; fill-rule:evenodd; clip-rule:evenodd"
viewBox="0 0 7000 2300"
 xmlns:xlink="http://www.w3.org/1999/xlink">
 <defs>
  <style type="text/css">
   <![CDATA[
    .fil1 {fill:#6AF8FF;fill-rule:nonzero}
    .fil0 {fill:white;fill-rule:nonzero}
    .fil2 {fill:url(#id0)}
   ]]>
  </style>
  <linearGradient id="id0" gradientUnits="userSpaceOnUse" x1="450.35" y1="1057.54" x2="1709.9" y2="1057.54">
   <stop offset="0" style="stop-opacity:1; stop-color:#7FF2FF"/>
   <stop offset="0.101961" style="stop-opacity:1; stop-color:#6AF8FF"/>
   <stop offset="1" style="stop-opacity:1; stop-color:white"/>
  </linearGradient>
 </defs>
 <g id="Слой_x0020_1">
  <metadata id="CorelCorpID_0Corel-Layer"/>
  <path class="fil0" d="M1898 1584l0 -1039 128 0 0 1039 -128 0zm360 -759l0 -123 108 0 0 123 -108 0zm0 759l0 -639 108 0 0 639 -108 0zm361 0l0 -556 -96 0 0 -83 96 0 0 -68c0,-43 4,-75 11,-96 11,-28 29,-50 55,-68 26,-17 63,-26 110,-26 31,0 65,4 102,11l-17 95c-22,-4 -43,-6 -63,-6 -33,0 -57,7 -70,21 -14,14 -21,40 -21,78l0 59 125 0 0 83 -123 0 0 556 -109 0zm814 -207l113 15c-18,65 -51,116 -98,152 -48,36 -109,54 -183,54 -93,0 -167,-29 -222,-87 -54,-57 -82,-138 -82,-241 0,-107 28,-191 83,-250 55,-59 127,-89 215,-89 85,0 155,29 209,87 54,58 81,140 81,245 0,7 0,16 0,29l-477 0c4,70 24,124 60,161 35,37 80,56 133,56 40,0 74,-10 102,-31 28,-21 50,-55 66,-101zm-354 -174l356 0c-5,-53 -19,-94 -41,-121 -35,-41 -79,-62 -134,-62 -50,0 -92,16 -125,50 -34,33 -53,78 -56,133z"/>
  <path class="fil1" d="M3612 1584l0 -540 82 0 0 76c17,-26 39,-47 67,-63 29,-16 60,-24 96,-24 40,0 73,8 99,25 25,16 43,39 53,69 43,-63 99,-94 168,-94 54,0 95,14 124,44 29,30 43,75 43,137l0 370 -91 0 0 -340c0,-36 -3,-63 -9,-79 -6,-16 -17,-29 -33,-38 -15,-10 -34,-15 -55,-15 -38,0 -69,12 -95,38 -25,25 -37,65 -37,121l0 313 -92 0 0 -350c0,-41 -7,-71 -22,-92 -15,-20 -39,-30 -73,-30 -26,0 -50,7 -72,20 -21,14 -37,33 -47,60 -10,26 -15,63 -15,112l0 280 -91 0zm867 -641l0 -104 91 0 0 104 -91 0zm0 641l0 -540 91 0 0 540 -91 0zm231 0l0 -540 82 0 0 77c39,-59 97,-88 171,-88 33,0 63,6 90,17 27,12 48,27 61,46 14,19 23,42 29,68 3,17 5,46 5,89l0 331 -92 0 0 -328c0,-37 -3,-65 -10,-84 -8,-18 -20,-33 -38,-44 -18,-11 -40,-16 -64,-16 -39,0 -72,12 -100,37 -29,25 -43,72 -43,141l0 294 -91 0zm578 -641l0 -104 92 0 0 104 -92 0zm0 641l0 -540 92 0 0 540 -92 0zm232 0l0 -540 82 0 0 77c39,-59 96,-88 171,-88 33,0 63,6 90,17 27,12 48,27 61,46 14,19 23,42 29,68 3,17 5,46 5,89l0 331 -92 0 0 -328c0,-37 -3,-65 -11,-84 -7,-18 -19,-33 -37,-44 -18,-11 -40,-16 -64,-16 -39,0 -72,12 -101,37 -28,25 -42,72 -42,141l0 294 -91 0zm561 45l89 12c3,28 14,48 31,60 23,17 54,26 93,26 42,0 75,-9 98,-26 23,-16 39,-40 47,-71 5,-18 7,-57 7,-117 -41,48 -90,71 -150,71 -74,0 -132,-27 -172,-80 -41,-54 -61,-118 -61,-192 0,-52 9,-99 28,-143 18,-44 45,-77 81,-101 35,-23 77,-35 124,-35 64,0 117,26 158,78l0 -67 84 0 0 466c0,85 -8,144 -26,179 -17,35 -44,63 -81,83 -37,20 -82,31 -136,31 -65,0 -117,-15 -156,-44 -40,-28 -59,-72 -58,-130zm75 -324c0,71 14,122 42,154 29,33 64,49 106,49 42,0 78,-16 106,-48 29,-32 43,-83 43,-152 0,-66 -15,-116 -44,-149 -30,-34 -65,-50 -106,-50 -41,0 -75,16 -104,49 -28,33 -43,82 -43,147z"/>
  <path class="fil2" d="M462 515c0,0 551,-84 751,115 199,200 415,953 510,953l-516 0c0,0 -84,17 -160,-98 -76,-114 -481,-878 -481,-878 0,0 -45,-89 -104,-92z"/>
 </g>
</svg>
