<?xml version="1.0" encoding="UTF-8"?>
<!DOCTYPE svg PUBLIC "-//W3C//DTD SVG 1.1//EN" "http://www.w3.org/Graphics/SVG/1.1/DTD/svg11.dtd">
<!-- Creator: CorelDRAW X8 -->
<svg xmlns="http://www.w3.org/2000/svg" xml:space="preserve" width="32mm" height="32mm" version="1.1" style="shape-rendering:geometricPrecision; text-rendering:geometricPrecision; image-rendering:optimizeQuality; fill-rule:evenodd; clip-rule:evenodd"
viewBox="0 0 3200 3200"
 xmlns:xlink="http://www.w3.org/1999/xlink">
 <defs>
  <style type="text/css">
   <![CDATA[
    .fil0 {fill:#2B2A29}
   ]]>
  </style>
 </defs>
 <g id="Слой_x0020_1">
  <metadata id="CorelCorpID_0Corel-Layer"/>
  <path class="fil0" d="M1034 1880l-265 -3c-89,-319 -29,-595 136,-807 570,-735 1795,-222 1530,806l-265 2 0 -731c-29,15 -236,232 -279,274 -49,50 -92,92 -141,141 -46,46 -98,111 -149,144 -95,-83 -190,-190 -282,-282 -43,-42 -250,-259 -286,-277l1 733zm1616 -280c0,-580 -470,-1050 -1050,-1050 -580,0 -1050,470 -1050,1050 0,580 470,1050 1050,1050 580,0 1050,-470 1050,-1050zm-1431 454l4 -449c12,-8 1,-7 15,10 29,8 218,209 267,258l84 93c43,-10 167,-150 200,-184 32,-31 165,-175 193,-185l0 457 366 0c-41,104 -190,233 -287,293 -288,178 -620,167 -913,3 -99,-55 -246,-194 -292,-295l363 -1zm-600 -692c-2,-2 -6,-3 -6,-4 -1,-7 2,-8 8,-1l-2 5z"/>
 </g>
</svg>
