<?xml version="1.0" encoding="UTF-8"?>
<!DOCTYPE svg PUBLIC "-//W3C//DTD SVG 1.1//EN" "http://www.w3.org/Graphics/SVG/1.1/DTD/svg11.dtd">
<!-- Creator: CorelDRAW X8 -->
<svg xmlns="http://www.w3.org/2000/svg" xml:space="preserve" width="57mm" height="38mm" version="1.1" style="shape-rendering:geometricPrecision; text-rendering:geometricPrecision; image-rendering:optimizeQuality; fill-rule:evenodd; clip-rule:evenodd"
viewBox="0 0 5700 3800"
 xmlns:xlink="http://www.w3.org/1999/xlink">
 <defs>
  <style type="text/css">
   <![CDATA[
    .fil0 {fill:#E6E6E6;fill-rule:nonzero}
    .fil1 {fill:url(#id0)}
   ]]>
  </style>
  <linearGradient id="id0" gradientUnits="userSpaceOnUse" x1="2538.4" y1="855.75" x2="4604.58" y2="2936.02">
   <stop offset="0" style="stop-opacity:1; stop-color:#D5188C"/>
   <stop offset="1" style="stop-opacity:1; stop-color:#7019B5"/>
  </linearGradient>
 </defs>
 <g id="Слой_x0020_1">
  <metadata id="CorelCorpID_0Corel-Layer"/>
  <path class="fil0" d="M1954 2059c0,117 -33,213 -99,288 -66,75 -160,125 -281,150l0 11c148,18 258,65 329,141 72,76 108,175 108,298 0,177 -61,312 -183,407 -122,95 -296,142 -521,142 -98,0 -187,-7 -268,-22 -81,-15 -161,-41 -237,-78l0 -200c80,40 165,70 256,90 90,21 176,31 257,31 319,0 478,-125 478,-374 0,-225 -175,-337 -528,-337l-181 0 0 -181 184 0c144,0 258,-32 342,-95 85,-64 127,-152 127,-265 0,-90 -31,-160 -93,-212 -62,-51 -146,-77 -252,-77 -81,0 -157,11 -229,33 -71,22 -153,63 -245,121l-106 -141c76,-60 163,-106 262,-140 99,-34 203,-51 313,-51 179,0 319,41 418,123 99,82 149,194 149,338z"/>
  <path class="fil1" d="M3980 1652c-507,0 -918,411 -918,918 0,507 411,918 918,918 507,0 918,-411 918,-918 0,-507 -411,-918 -918,-918zm-146 -255l150 0c210,0 347,-127 347,-342 0,-215 -137,-340 -347,-340l-278 0 0 107 63 0 0 200 -85 0 0 120 85 0 0 189c0,47 19,66 65,66zm60 -575l83 0c134,0 223,80 223,233 0,153 -87,235 -223,235l-61 0c-1,0 -2,0 -2,0 -11,0 -20,-9 -20,-19 0,-1 0,-2 0,-2l0 -127 110 0 0 -120 -110 0 0 -200zm-937 1276c0,0 0,1 0,2 0,7 -6,14 -14,14 -1,0 -2,0 -2,0l-141 0c-24,0 -39,0 -39,0l0 0c14,-14 28,-30 39,-47l232 -328 0 -60 -159 0 0 -82 -91 0 0 82 -85 0c-33,0 -49,15 -49,49l0 79 86 0 0 -32c0,0 0,-1 0,-1 0,-8 7,-15 15,-15 0,0 1,0 1,0l126 0c24,0 40,0 40,0l0 0c-15,15 -28,31 -40,47l-231 328 0 60 137 0 0 67 91 0 0 -67 120 0c34,0 50,-14 50,-49l0 -79 -86 0 0 32zm1042 -1794c-415,0 -752,337 -752,753 0,241 113,455 289,593 30,-14 60,-27 90,-38 -178,-120 -296,-324 -296,-555 0,-370 300,-669 669,-669 370,0 669,299 669,669 0,237 -123,446 -310,564 31,12 60,26 89,41 185,-137 305,-357 305,-605 0,-416 -337,-753 -753,-753zm0 111c-354,0 -641,287 -641,642 0,229 120,430 301,544 5,-2 10,-4 15,-5 -182,-111 -304,-311 -304,-539 0,-348 282,-630 629,-630 348,0 630,282 630,630 0,234 -128,438 -318,547 5,1 10,3 15,5 189,-112 315,-317 315,-552 0,-355 -287,-642 -642,-642zm-1134 894c-342,0 -620,278 -620,620 0,343 278,620 620,620 32,0 64,-2 94,-7 1,-24 3,-47 5,-70 -32,5 -65,8 -99,8 -304,0 -551,-246 -551,-551 0,-304 247,-551 551,-551 239,0 442,151 519,363 19,-13 38,-27 58,-39 -90,-230 -314,-393 -577,-393zm0 91c-292,0 -529,237 -529,529 0,292 237,529 529,529 35,0 69,-3 101,-10 1,-3 1,-7 2,-10 -33,6 -68,10 -103,10 -286,0 -518,-232 -518,-519 0,-286 232,-518 518,-518 228,0 422,147 491,351l9 -7c-72,-206 -269,-355 -500,-355zm1115 354c451,0 816,365 816,816 0,450 -365,816 -816,816 -450,0 -816,-366 -816,-816 0,-451 366,-816 816,-816zm0 33c-432,0 -783,351 -783,783 0,432 351,783 783,783 432,0 783,-351 783,-783 0,-432 -351,-783 -783,-783zm0 16c424,0 767,343 767,767 0,424 -343,767 -767,767 -424,0 -767,-343 -767,-767 0,-424 343,-767 767,-767zm-179 204l0 175c-23,1 -45,2 -68,2l0 -1 -147 0 0 114c0,0 79,-2 77,0 44,0 58,25 62,47l0 199 0 281c-2,13 -10,35 -40,35 1,1 -78,0 -78,0l-21 127 139 0c26,0 51,1 76,1l1 177 106 0 0 -175c29,0 58,0 85,0l0 175 107 0 0 -177c179,-10 305,-56 321,-224 13,-136 -52,-196 -153,-220 61,-32 100,-87 91,-180 -12,-126 -121,-168 -259,-181l0 -175 -107 0 0 171c-28,0 -56,1 -85,1l0 -172 -107 0zm174 297c79,0 185,13 185,107 0,121 -189,107 -249,107l0 -214c15,0 38,-1 64,0l0 0zm13 320c94,1 222,14 222,118 0,133 -227,118 -299,118l0 -235c18,0 45,-1 77,-1z"/>
 </g>
</svg>
