<?xml version="1.0" encoding="UTF-8"?>
<!DOCTYPE svg PUBLIC "-//W3C//DTD SVG 1.1//EN" "http://www.w3.org/Graphics/SVG/1.1/DTD/svg11.dtd">
<!-- Creator: CorelDRAW X8 -->
<svg xmlns="http://www.w3.org/2000/svg" xml:space="preserve" width="57mm" height="38mm" version="1.1" style="shape-rendering:geometricPrecision; text-rendering:geometricPrecision; image-rendering:optimizeQuality; fill-rule:evenodd; clip-rule:evenodd"
viewBox="0 0 5700 3800"
 xmlns:xlink="http://www.w3.org/1999/xlink">
 <defs>
  <style type="text/css">
   <![CDATA[
    .fil1 {fill:#E6E6E6;fill-rule:nonzero}
    .fil0 {fill:url(#id0)}
   ]]>
  </style>
  <linearGradient id="id0" gradientUnits="userSpaceOnUse" x1="2700.21" y1="722.09" x2="4746.03" y2="3077.9">
   <stop offset="0" style="stop-opacity:1; stop-color:#D5188C"/>
   <stop offset="1" style="stop-opacity:1; stop-color:#7019B5"/>
  </linearGradient>
 </defs>
 <g id="Слой_x0020_1">
  <metadata id="CorelCorpID_0Corel-Layer"/>
  <path class="fil0" d="M2841 308l1764 0c97,0 176,80 176,177l0 250 283 0c97,0 176,79 176,176l0 2404c0,97 -79,177 -176,177l-459 0 -176 0 -1411 0 -177 0 -458 0c-97,0 -177,-80 -177,-177l0 -2404c0,-97 80,-176 177,-176l282 0 0 -250c0,-97 79,-177 176,-177zm-176 3007l0 0 0 -2404 -282 0 0 0 0 2404 0 0c0,0 104,0 282,0zm2116 -2404l0 2404 0 0c178,0 283,0 283,0l0 0 0 -2404 0 0 -283 0zm-176 -176l0 0 0 154 0 2426 -1764 0 0 -2830 0 0 1764 0 0 0 0 0 0 250zm0 -251c0,0 0,0 0,0zm0 2832c0,0 0,0 0,0zm-882 -1650c322,0 582,261 582,582 0,322 -260,583 -582,583 -321,0 -582,-261 -582,-583 0,-321 261,-582 582,-582zm-529 -917l1058 0c49,0 88,40 88,88l0 0c0,49 -39,89 -88,89l-1058 0c-49,0 -88,-40 -88,-89l0 0c0,-48 39,-88 88,-88zm140 318l778 0c48,0 88,39 88,88l0 0c0,48 -40,88 -88,88l-778 0c-48,0 -88,-40 -88,-88l0 0c0,-49 40,-88 88,-88zm625 1302c0,50 -18,89 -53,119 -36,30 -86,48 -150,54l0 95 -63 0 0 -94c-76,-1 -142,-14 -199,-39l0 -123c27,13 59,25 97,35 38,10 72,16 102,18l0 -144 -31 -12c-62,-24 -105,-50 -130,-78 -26,-28 -39,-63 -39,-105 0,-45 18,-82 53,-111 35,-29 84,-46 147,-52l0 -72 63 0 0 70c71,3 135,17 192,42l-43 109c-48,-20 -98,-32 -149,-36l0 137c61,23 104,43 129,60 26,17 44,35 56,56 12,20 18,44 18,71zm-139 7c0,-13 -6,-24 -16,-33 -11,-9 -27,-18 -48,-28l0 116c42,-7 64,-25 64,-55zm-187 -281c0,13 5,25 14,33 9,9 25,18 46,28l0 -109c-40,5 -60,21 -60,48z"/>
  <path class="fil1" d="M1674 3474l-1214 0 0 -180 487 -489c147,-150 245,-257 293,-321 47,-64 82,-127 106,-187 23,-61 35,-126 35,-196 0,-98 -30,-176 -90,-234 -60,-58 -143,-87 -249,-87 -77,0 -149,13 -217,38 -69,25 -146,71 -230,138l-111 -143c170,-141 355,-211 556,-211 173,0 309,44 408,133 98,89 148,208 148,358 0,117 -33,233 -99,348 -66,114 -188,259 -369,434l-404 395 0 10 950 0 0 194z"/>
 </g>
</svg>
