<?xml version="1.0" encoding="UTF-8"?>
<!DOCTYPE svg PUBLIC "-//W3C//DTD SVG 1.1//EN" "http://www.w3.org/Graphics/SVG/1.1/DTD/svg11.dtd">
<!-- Creator: CorelDRAW X8 -->
<svg xmlns="http://www.w3.org/2000/svg" xml:space="preserve" width="57mm" height="38mm" version="1.1" style="shape-rendering:geometricPrecision; text-rendering:geometricPrecision; image-rendering:optimizeQuality; fill-rule:evenodd; clip-rule:evenodd"
viewBox="0 0 5700 3800"
 xmlns:xlink="http://www.w3.org/1999/xlink">
 <defs>
  <style type="text/css">
   <![CDATA[
    .fil0 {fill:#E6E6E6;fill-rule:nonzero}
    .fil1 {fill:url(#id0)}
   ]]>
  </style>
  <linearGradient id="id0" gradientUnits="userSpaceOnUse" x1="2442.99" y1="1073.49" x2="4467.47" y2="2726.5">
   <stop offset="0" style="stop-opacity:1; stop-color:#D5188C"/>
   <stop offset="1" style="stop-opacity:1; stop-color:#7019B5"/>
  </linearGradient>
 </defs>
 <g id="Слой_x0020_1">
  <metadata id="CorelCorpID_0Corel-Layer"/>
  <path class="fil0" d="M1835 3474l-205 0 0 -1316c0,-109 4,-213 10,-310 -17,18 -37,36 -59,56 -22,19 -122,101 -301,246l-111 -144 489 -378 177 0 0 1846z"/>
  <path class="fil1" d="M3117 819l691 0c71,0 128,-57 128,-128 0,-70 -57,-127 -128,-127l-43 0c-3,-13 -5,-26 -9,-39 -3,-9 -7,-18 -10,-27 -46,-111 -156,-190 -283,-190 -128,0 -237,79 -283,190 0,0 0,0 0,0 -4,9 -7,18 -10,27 -4,13 -7,26 -9,39l-44 0c-70,0 -128,57 -128,127 0,71 58,128 128,128zm512 -255l0 -1 0 0 0 -1 0 0 -1 -1 0 -1 0 0 0 -1 0 0 0 -1 -1 0 0 0 0 -1 0 0 0 0 0 0 0 -1 0 0 0 -1 0 0 -1 0 0 -1 0 0 0 0 0 0 0 -1 0 0 -1 -1 0 0 0 0 0 0 0 -1 0 0 0 -1 0 0 -1 0 0 0 0 -1 0 0 0 0 0 0 0 -1 0 0 0 -1 -1 0 0 0 0 0 0 -1 0 0 -1 -3 0 0 -1 -1 0 0 -1 -2 0 0 0 -2 0 0 -1 0 0 0 0 -1 0 0 -1 -1 0 0 0 -1 0 0 -1 -1 0 0 0 -1 0 0 0 0 0 0 -1 -1 0 0 0 0 0 0 0 -1 0 0 -1 -1 0 0 0 0 0 0 0 -1 0 0 -1 0 0 -1 0 0 0 0 -1 -1 0 -1 0 0 0 0 -1 -1 0 0 0 -1 0 0 -1 -1 0 0 0 0 0 0 0 0 -1 -1 0 0 0 0 0 -1 0 0 0 0 -1 -1 0 0 0 0 0 -1 -1 0 0 0 0 -1 0 0 0 0 0 0 -1 -1 0 0 0 0 0 -1 -1 0 0 0 0 -1 0 0 0 0 0 0 -1 0 0 0 0 -1 0 0 0 0 -1 -1 0 0 0 0 0 -1 -1 0 0 0 0 0 0 -1 0 0 -1 0 0 0 0 -1 0 0 0 0 0 0 -1 -1 0 0 0 0 0 0 -1 -1 0 0 0 -1 -1 0 0 -1 0 0 -1 0 0 -1 0 0 -1 -1 0 0 0 0 -1 -1 0 0 0 0 0 -1 -1 0 0 0 0 -1 -1 0 0 0 0 -1 0 0 0 0 -1 0 0 -1 -1 0 0 -1 0 0c-32,-36 -78,-58 -129,-58 -52,0 -98,22 -130,58 -7,8 -14,17 -20,27 -7,12 -13,25 -17,39l0 0 333 0zm-166 -124l0 0zm-745 2605l239 0 0 -239 -239 0 0 239zm0 -435l239 0 0 -239 -239 0 0 239zm0 -430l239 0 0 -239 -239 0 0 239zm239 -674l-239 0 0 239 239 0 0 -239zm-41 95l-97 76c-1,0 -1,0 -1,0 -1,1 -3,2 -4,2 -1,0 -1,0 -1,1 -2,0 -3,0 -5,0 0,0 0,0 0,0 -1,0 -2,0 -4,0 0,0 0,0 -1,0 -1,-1 -1,-1 -2,-1 -1,0 -1,0 -1,-1 -1,0 -2,0 -2,-1 -1,0 -1,-1 -1,-1 -1,0 -1,0 -1,0l-13 -13 -26 -25 0 -1 0 0 0 0 -1 0 0 0 0 -1 0 0 0 0 0 0 -1 0 0 0 0 -1 0 0 0 0 0 0 0 0 0 0 -1 -1 0 0 0 0 0 0 0 0 0 0 0 -1 0 0 0 0 0 0 -1 0 0 -1 0 0 0 0 0 0 0 0 0 -1 0 0 0 0 0 0 0 0 0 0 0 -1 0 0 0 0 -1 0 0 -1 0 0 0 0 0 0 0 0 0 -1 0 0 0 0 0 0 0 0 0 -1 0 0 0 0 0 0 0 0 0 -1 0 0 0 0 0 0 0 0 0 -1 0 0 0 0 0 0 0 0 0 -1 0 0 0 0 0 0 0 0 0 -1 0 0 0 0 0 0 0 0 0 -1 0 0 0 0 0 0 0 -1 0 0 0 0 1 0 0 0 0 0 0 -1 0 0 0 0 0 0 0 -1 0 0 0 0 0 0 0 0 0 0 0 -1 0 0 1 0 0 0 0 -1 0 0 0 0 0 0 0 -1 0 0 1 -1 0 0c1,-1 1,-1 2,-2l0 0 0 0 1 -1 0 0 1 -1 0 0c1,0 2,-1 2,-1l1 0 0 0 0 0 0 0 0 0 0 0 1 -1 0 0 0 0 1 0 0 0 0 0 0 0 0 0 0 0 0 0 1 0 0 0 0 0 0 0 0 0 0 0 0 0 1 0 0 -1 0 0 0 0 0 0 0 0 0 0 1 0 0 0 0 0 0 0 0 0 0 0 1 0 0 0 0 0 0 0 0 0 0 0 0 0 1 0 0 0 0 0 0 0 0 0 0 0 0 0 1 0 0 0 0 0 0 0 0 0 0 0 0 0 1 0 0 0 0 0 0 0 1 0 0 0 0 0 0 0 0 0 1 0 0 1 0 0 0 0 0 0 0 0 0 0 0 0 1 0 0 0 0 0 1 0 0 0 0 0 0 0 0 0 0 0 1 0 0 0 0 1 0 0 0 0 0 0 0 0 0 0 0 0 0 0 1 0 0 0 1 0 0 1 0 0 0 0 0 0 1 0 0 0 0 0 0 0 0 0 0 0 0 0 0 0 0 0 0 1 1 0 0 0 0 0 0 0 0 0 0 0 0 0 0 0 0 0 1 0 0 1 0 0 0 0 0 0 1 0 27 27 0 0 86 -67 0 0 0 0 1 0 0 0 0 0 0 0 0 0 0 -1 0 0 1 0 0 0 0 0 0 0 0 0 0 0 0 0 0 0 0 0 0 0 0 0 0 0 1 0 0 0 0 0 0 0 0 0 0 0 0 -1 0 0 0 0 0 0 1 0 0 0 0 0 0 0 0 0 0 0 0 0 0 0 0 0 0 0 1 0 0 0 0 0 0 0 0 0 0 0 0 0 0 0 0 0 0 0 0 0 0 0m-91 69l6 -5 79 -61 1 -1 -86 67zm95 -70l0 0 0 0 0 0 0 0 0 0 0 0 0 0 0 0 0 0 0 0 0 0 0 0 0 0zm2 0l0 0 1 0 -1 0m2 0l0 0 0 0 0 0 0 0 1 0 0 0 1 0 0 0c2,1 4,2 5,3l1 0 0 0 0 0 0 0 0 0 0 0 1 1 0 0 0 0 0 0 0 0 0 0 0 0 0 0 1 1 0 0 0 0 0 0 0 0 0 0 0 0 1 1 0 0 0 0 0 0 0 0 0 0c6,8 5,19 -3,25m41 -525l-239 0 0 240 239 0 0 -240zm-191 103l1 0 0 0 0 0 -1 0zm3 0l1 0 -1 0c-4,0 -9,2 -12,5 -2,2 -3,4 -4,6 1,-2 2,-4 4,-6 2,-2 4,-3 6,-4l0 0 1 0 1 0 0 0 0 0 0 0 0 0 1 -1 0 0m10 2c2,0 4,2 5,3l28 27 0 0 86 -67c1,-1 2,-1 4,-2l0 0 0 0 0 0 1 0 0 0 0 0 0 0 0 0 0 0 0 0 0 0 0 -1 0 0 1 0 0 0 0 0 0 0 0 0 0 0 0 0 0 0 0 0 0 0 1 0 0 0 0 0 0 0 0 0 0 0 0 0 0 0 0 0 1 0 0 0 0 0 0 0 0 0 0 0 0 0 0 0 0 0 0 0 1 0 0 0 0 0 0 0 0 0 0 0 0 0 1 0 0 0 0 0 0 0 0 0 0 0 1 0 0 0 0 0 0 0 1 0 0 0 0 0 0 0m0 0l0 0 0 0 0 0 0 0 0 0 0 0 0 0 0 0zm1 0c3,0 7,2 9,4 -3,-2 -6,-4 -9,-4 -5,-1 -9,0 -13,3l-86 67 0 0 -28 -27c-1,-1 -3,-3 -5,-3m141 -36c1,1 2,1 2,2 1,2 2,3 3,5 -1,-2 -2,-3 -3,-5 0,0 -1,-1 -2,-2zm171 1900l542 0 0 -90 -542 0 0 90zm0 -149l1083 0 0 -90 -1083 0 0 90zm0 -286l542 0 0 -91 -542 0 0 91zm0 -149l1083 0 0 -90 -1083 0 0 90zm0 -281l542 0 0 -90 -542 0 0 90zm0 -149l1083 0 0 -90 -1083 0 0 90zm0 -280l542 0 0 -90 -542 0 0 90zm0 -155l1083 0 0 -90 -1083 0 0 90zm0 -280l542 0 0 -91 -542 0 0 91zm0 -149l1083 0 0 -91 -1083 0 0 91zm1259 -576l-374 0c18,29 29,64 29,100 0,32 -8,63 -22,89l409 0 0 2522 -1868 0 0 -2522 425 0c-14,-26 -22,-57 -22,-89 0,-36 10,-71 28,-100l-389 0c-101,0 -183,82 -183,183l0 2534c0,101 82,184 183,184l1784 0c102,0 184,-83 184,-184l0 -2534c0,-101 -82,-183 -184,-183zm-1440 550l0 0 0 0m0 0l1 0 -1 0zm1 0l0 0 0 0zm-141 38l0 0 0 0zm0 0l0 0 0 0zm0 0l0 0 0 0zm0 0l1 0 -1 0zm1 0l0 0 0 0zm0 0l0 0 0 0 0 0 0 0m0 0l0 0 0 0zm0 0l1 0 -1 0zm1 0l0 0 0 0zm0 0l0 0 0 0zm135 391l0 0 0 0m0 0l0 0 1 0 -1 0 0 0zm1 0l0 0 0 0zm0 0l0 0 0 0zm0 0l0 0 0 0 0 0 0 0zm0 0l0 0 0 0 0 0 0 0zm0 0l1 0 -1 0zm1 0l0 0 0 0zm0 0l0 0 0 0zm1 0l0 0 0 0zm0 0l0 0 0 0zm0 0l0 0 0 0zm0 0l0 0 0 0 0 0 0 0zm0 0l1 0 -1 0zm1 0l0 0 0 0zm-4 0l0 0 0 0 0 0 0 0 -1 0 0 0 0 0 0 0 0 0 0 0 0 0 0 0 0 0 0 0 -1 0 0 0 0 0 0 0 0 0 0 0 0 0 0 0 0 0 0 0 -1 0 0 0 0 0 0 0 0 0 0 0 0 0 0 0 0 0 0 0 -1 1 0 0 0 0m-128 37l1 1m0 0l0 0m0 0l0 0 0 0 0 0 1 0 0 0 0 0 0 0 0 0 0 0 1 0 0 0 0 0m-4 -1l0 0 0 0m-10 2c0,0 -1,1 -2,1m-2 2l0 0 0 1 0 0 -2 1m28 48l-26 -25 39 38m119 -103c-1,-1 -3,-2 -5,-3m-101 70l-28 -27m-9 -5l0 0 0 0 0 0 0 0m0 0l-1 0 0 0"/>
 </g>
</svg>
