<?xml version="1.0" encoding="UTF-8"?>
<!DOCTYPE svg PUBLIC "-//W3C//DTD SVG 1.1//EN" "http://www.w3.org/Graphics/SVG/1.1/DTD/svg11.dtd">
<!-- Creator: CorelDRAW X8 -->
<svg xmlns="http://www.w3.org/2000/svg" xml:space="preserve" width="24mm" height="24mm" version="1.1" style="shape-rendering:geometricPrecision; text-rendering:geometricPrecision; image-rendering:optimizeQuality; fill-rule:evenodd; clip-rule:evenodd"
viewBox="0 0 2400 2400"
 xmlns:xlink="http://www.w3.org/1999/xlink">
 <defs>
  <style type="text/css">
   <![CDATA[
    .fil0 {fill:url(#id0)}
   ]]>
  </style>
  <linearGradient id="id0" gradientUnits="userSpaceOnUse" x1="1611.34" y1="1457.86" x2="788.66" y2="2317.87">
   <stop offset="0" style="stop-opacity:1; stop-color:#D5188C"/>
   <stop offset="1" style="stop-opacity:1; stop-color:#7019B5"/>
  </linearGradient>
 </defs>
 <g id="Слой_x0020_1">
  <metadata id="CorelCorpID_0Corel-Layer"/>
  <path class="fil0" d="M1797 1455l-589 311 -590 -311c-15,-11 -33,-17 -51,-17 -49,0 -88,39 -88,88 0,24 10,47 28,64l631 718c16,19 40,30 65,30 25,0 49,-11 66,-30l631 -718c13,-16 21,-37 21,-58 0,-48 -39,-87 -88,-87 -14,0 -28,3 -40,10l4 0zm-1306 -246c0,2 0,5 0,8 0,3 0,6 0,9 0,3 0,4 0,7 2,4 4,7 6,11l5 8c6,9 14,16 22,21l0 0 638 405c14,9 31,14 47,14 17,0 34,-5 48,-14l624 -405 6 -5 13 -11c4,-5 7,-10 10,-15 3,-5 0,0 5,-7 4,-7 0,-5 0,-7 3,-9 4,-18 4,-28 0,-13 -3,-26 -9,-38 -6,-12 0,-4 0,-7l-631 -1051c-2,-5 -6,-9 -9,-13 -17,-18 -41,-29 -65,-29 -25,0 -49,11 -66,29 -3,4 -7,8 -9,13l-631 1051c0,0 0,0 0,6 -6,12 -10,25 -10,38 0,3 1,7 1,10l1 0zm629 231l-350 -225 350 -149 0 374zm175 -379l358 154 -358 232 0 -386zm0 -191l0 -406 329 547 -329 -141zm-175 6l-330 139 330 -551 0 412zm88 1241l-252 -286 210 111c13,6 27,10 41,10 14,0 28,-4 41,-10l210 -111 -250 286z"/>
 </g>
</svg>
