<?xml version="1.0" encoding="UTF-8"?>
<!DOCTYPE svg PUBLIC "-//W3C//DTD SVG 1.1//EN" "http://www.w3.org/Graphics/SVG/1.1/DTD/svg11.dtd">
<!-- Creator: CorelDRAW X8 -->
<svg xmlns="http://www.w3.org/2000/svg" xml:space="preserve" width="24mm" height="24mm" version="1.1" style="shape-rendering:geometricPrecision; text-rendering:geometricPrecision; image-rendering:optimizeQuality; fill-rule:evenodd; clip-rule:evenodd"
viewBox="0 0 2400 2400"
 xmlns:xlink="http://www.w3.org/1999/xlink">
 <defs>
  <style type="text/css">
   <![CDATA[
    .fil0 {fill:url(#id0)}
   ]]>
  </style>
  <linearGradient id="id0" gradientUnits="userSpaceOnUse" x1="1933.15" y1="745.71" x2="466.85" y2="1654.29">
   <stop offset="0" style="stop-opacity:1; stop-color:#D5188C"/>
   <stop offset="1" style="stop-opacity:1; stop-color:#7019B5"/>
  </linearGradient>
 </defs>
 <g id="Слой_x0020_1">
  <metadata id="CorelCorpID_0Corel-Layer"/>
  <path class="fil0" d="M745 2095l393 0c552,0 912,-333 912,-897 0,-564 -360,-892 -912,-892l-728 0 0 279 164 0 0 525 -224 0 0 315 224 0 0 497c0,122 50,173 171,173zm158 -1510l217 0c352,0 587,210 587,612 0,402 -229,617 -587,617l-161 0c-2,0 -4,1 -6,1 -27,0 -50,-23 -50,-51 0,-2 0,-4 0,-5l0 -334 287 0 0 -315 -287 0 0 -525z"/>
 </g>
</svg>
