<?xml version="1.0" encoding="UTF-8"?>
<!DOCTYPE svg PUBLIC "-//W3C//DTD SVG 1.1//EN" "http://www.w3.org/Graphics/SVG/1.1/DTD/svg11.dtd">
<!-- Creator: CorelDRAW X8 -->
<svg xmlns="http://www.w3.org/2000/svg" xml:space="preserve" width="24mm" height="24mm" version="1.1" style="shape-rendering:geometricPrecision; text-rendering:geometricPrecision; image-rendering:optimizeQuality; fill-rule:evenodd; clip-rule:evenodd"
viewBox="0 0 2400 2400"
 xmlns:xlink="http://www.w3.org/1999/xlink">
 <defs>
  <style type="text/css">
   <![CDATA[
    .fil0 {fill:url(#id0)}
   ]]>
  </style>
  <linearGradient id="id0" gradientUnits="userSpaceOnUse" x1="2017" y1="667.17" x2="383" y2="1732.83">
   <stop offset="0" style="stop-opacity:1; stop-color:#D5188C"/>
   <stop offset="1" style="stop-opacity:1; stop-color:#7019B5"/>
  </linearGradient>
 </defs>
 <g id="Слой_x0020_1">
  <metadata id="CorelCorpID_0Corel-Layer"/>
  <path class="fil0" d="M674 1460l-246 -3c-83,-296 -26,-552 127,-749 528,-683 1666,-206 1421,748l-247 2 0 -679c-26,14 -219,216 -259,255 -46,46 -85,86 -130,131 -43,43 -91,103 -139,134 -88,-78 -177,-177 -262,-262 -39,-39 -232,-241 -265,-258l0 681zm1501 -260c0,-539 -436,-975 -975,-975 -539,0 -975,436 -975,975 0,539 436,975 975,975 539,0 975,-436 975,-975zm-1329 422l4 -418c11,-7 1,-6 14,10 27,8 202,194 247,239l79 87c40,-9 155,-140 185,-171 30,-29 154,-162 180,-172l0 425 340 0c-38,96 -176,216 -266,272 -268,165 -577,154 -849,3 -92,-52 -228,-181 -270,-274l336 -1zm-557 -643c-2,-1 -6,-2 -6,-4 -1,-6 3,-7 8,-1l-2 5z"/>
 </g>
</svg>
