<?xml version="1.0" encoding="UTF-8"?>
<!DOCTYPE svg PUBLIC "-//W3C//DTD SVG 1.1//EN" "http://www.w3.org/Graphics/SVG/1.1/DTD/svg11.dtd">
<!-- Creator: CorelDRAW X8 -->
<svg xmlns="http://www.w3.org/2000/svg" xml:space="preserve" width="24mm" height="24mm" version="1.1" style="shape-rendering:geometricPrecision; text-rendering:geometricPrecision; image-rendering:optimizeQuality; fill-rule:evenodd; clip-rule:evenodd"
viewBox="0 0 2400 2400"
 xmlns:xlink="http://www.w3.org/1999/xlink">
 <defs>
  <style type="text/css">
   <![CDATA[
    .fil0 {fill:url(#id0)}
   ]]>
  </style>
  <linearGradient id="id0" gradientUnits="userSpaceOnUse" x1="2175.11" y1="564.06" x2="224.89" y2="1835.94">
   <stop offset="0" style="stop-opacity:1; stop-color:#D5188C"/>
   <stop offset="1" style="stop-opacity:1; stop-color:#7019B5"/>
  </linearGradient>
 </defs>
 <g id="Слой_x0020_1">
  <metadata id="CorelCorpID_0Corel-Layer"/>
  <path class="fil0" d="M445 1295l310 0c12,54 34,106 65,152l-220 220c-22,-8 -46,-12 -70,-12 -119,0 -215,97 -215,216 0,119 96,215 215,215 119,0 216,-96 216,-215 0,-24 -4,-47 -12,-70l219 -221c46,31 98,53 152,65l0 310c-74,36 -120,112 -120,194 0,119 96,215 215,215 119,0 215,-96 215,-215 0,-82 -46,-158 -120,-194l0 -310c54,-12 106,-34 152,-65l220 220c-8,22 -12,46 -12,70 0,119 97,215 216,215 119,0 215,-96 215,-215 0,-119 -96,-216 -215,-216 -24,0 -47,4 -70,12l-221 -219c31,-46 53,-98 65,-152l310 0c36,74 112,120 194,120 119,0 215,-96 215,-215 0,-119 -96,-215 -215,-215 -82,0 -158,46 -194,120l-310 0c-12,-54 -34,-106 -65,-152l220 -220c22,8 46,12 70,12 119,0 215,-97 215,-216 0,-119 -96,-215 -215,-215 -119,0 -216,96 -216,215 0,24 4,47 12,70l-219 221c-46,-31 -98,-53 -152,-64l0 -311c74,-36 120,-112 120,-194 0,-119 -96,-215 -215,-215 -119,0 -215,96 -215,215 0,82 46,158 120,194l0 310c-54,12 -106,34 -152,65l-220 -220c8,-22 12,-46 12,-70 0,-119 -97,-215 -216,-215 -119,0 -215,96 -215,215 0,119 96,216 215,216 24,0 47,-4 70,-12l221 219c-31,46 -53,98 -64,152l-311 0c-36,-74 -112,-120 -194,-120 -119,0 -215,96 -215,215 0,119 96,215 215,215 82,0 158,-46 194,-120l0 0zm755 -360c146,0 265,119 265,265 0,146 -119,265 -265,265 -146,0 -265,-119 -265,-265 0,-146 119,-265 265,-265l0 0z"/>
 </g>
</svg>
