<?xml version="1.0" encoding="UTF-8"?>
<!DOCTYPE svg PUBLIC "-//W3C//DTD SVG 1.1//EN" "http://www.w3.org/Graphics/SVG/1.1/DTD/svg11.dtd">
<!-- Creator: CorelDRAW X8 -->
<svg xmlns="http://www.w3.org/2000/svg" xml:space="preserve" width="24mm" height="24mm" version="1.1" style="shape-rendering:geometricPrecision; text-rendering:geometricPrecision; image-rendering:optimizeQuality; fill-rule:evenodd; clip-rule:evenodd"
viewBox="0 0 2400 2400"
 xmlns:xlink="http://www.w3.org/1999/xlink">
 <defs>
  <style type="text/css">
   <![CDATA[
    .fil0 {fill:url(#id0)}
   ]]>
  </style>
  <linearGradient id="id0" gradientUnits="userSpaceOnUse" x1="2154.09" y1="608.93" x2="245.93" y2="1791.07">
   <stop offset="0" style="stop-opacity:1; stop-color:#D5188C"/>
   <stop offset="1" style="stop-opacity:1; stop-color:#7019B5"/>
  </linearGradient>
 </defs>
 <g id="Слой_x0020_1">
  <metadata id="CorelCorpID_0Corel-Layer"/>
  <path class="fil0" d="M1759 211c-5,-1 -121,-61 -162,-76 -58,-22 -120,-42 -185,-54 -136,-25 -297,-30 -434,1 -66,15 -122,31 -183,55 -223,85 -402,243 -527,433 -185,279 -222,644 -113,963 30,90 71,161 119,239 8,15 40,61 51,71l111 -111c-115,-157 -183,-350 -183,-560 0,-261 106,-498 277,-669 172,-172 409,-278 670,-278 262,0 498,106 670,278 24,23 46,48 67,74l1 -541c-31,21 -142,148 -179,175zm-1291 1490l85 -85c-14,-35 -57,-76 -102,-212 -69,-209 -36,-456 77,-642l66 -94c168,-191 391,-305 668,-283 62,4 212,37 252,66 -10,24 -112,107 -129,135l503 1c-166,-194 -412,-318 -688,-318 -499,0 -903,405 -903,903 0,198 63,380 171,529zm1413 -918c3,17 16,37 23,50 8,16 15,34 23,52 45,101 66,260 51,375 -17,130 -62,266 -139,369 -13,16 -18,26 -32,43 -83,98 -191,188 -340,242 -75,27 -155,43 -246,47 -63,3 -216,-11 -259,-39 6,-12 51,-67 61,-79 11,-13 20,-25 32,-39 10,-13 25,-26 30,-44 -89,6 -185,21 -272,29l-238 25c-3,1 -6,1 -9,1 163,161 387,260 634,260 499,0 903,-404 903,-903 0,-171 -47,-331 -130,-467 -45,38 -84,71 -92,78zm-884 -159c2,25 21,72 21,93 -8,4 -17,7 -26,12 -121,67 -141,114 -159,127 -11,-3 -31,-17 -42,-24l-43 -23 -76 131c17,9 72,44 82,47 -1,10 -17,58 -22,79 -11,46 -11,78 -11,125 0,16 3,17 3,30 -18,1 -74,22 -96,22 0,11 34,142 38,150 7,-3 87,-24 96,-24 2,10 20,43 26,53 24,41 73,106 113,132 -7,13 -48,76 -49,88 10,2 24,12 34,18 16,10 86,54 100,55 4,-18 40,-67 43,-82l49 17c68,21 111,19 186,19 4,18 22,78 22,90 17,0 131,-34 150,-35 -8,-33 -17,-64 -25,-96 34,-3 138,-82 169,-118 8,-10 9,-14 20,-21 20,11 69,45 84,46 5,-16 70,-113 74,-131 -17,-9 -72,-44 -82,-46l22 -79c13,-57 11,-98 11,-156 13,0 35,-7 47,-10 16,-4 30,-8 46,-12 -1,-15 -35,-131 -36,-147 -25,1 -73,22 -98,22 -6,-24 -44,-83 -59,-102 -5,-8 -11,-15 -17,-22l-39 -42c-10,-9 -14,-9 -22,-20 5,-16 43,-68 47,-84l-131 -77 -46 82c-10,-1 -71,-26 -135,-32 -52,-5 -47,-4 -97,0 -4,-8 -24,-84 -25,-93l-147 38zm-455 1230c9,116 30,254 41,374 2,23 5,44 8,67 2,21 2,53 10,69l19 -20c6,-8 13,-15 18,-23 13,-16 24,-30 37,-46 12,-15 22,-29 35,-43 11,-14 24,-32 37,-45 18,3 59,23 78,30 25,10 59,20 85,28 175,53 409,50 582,0 240,-70 423,-202 542,-343 61,-73 135,-176 172,-268 61,-150 70,-185 94,-350 17,-118 -4,-290 -34,-399 -23,-80 -56,-164 -96,-236 -13,-23 -32,-51 -42,-71 -9,5 -65,51 -121,98 89,144 140,314 140,496 0,262 -106,499 -277,670 -172,171 -408,277 -670,277 -255,0 -487,-101 -658,-265z"/>
 </g>
</svg>
