<?xml version="1.0" encoding="UTF-8"?>
<!DOCTYPE svg PUBLIC "-//W3C//DTD SVG 1.1//EN" "http://www.w3.org/Graphics/SVG/1.1/DTD/svg11.dtd">
<!-- Creator: CorelDRAW X8 -->
<svg xmlns="http://www.w3.org/2000/svg" xml:space="preserve" width="30mm" height="25mm" version="1.1" style="shape-rendering:geometricPrecision; text-rendering:geometricPrecision; image-rendering:optimizeQuality; fill-rule:evenodd; clip-rule:evenodd"
viewBox="0 0 3000 2500"
 xmlns:xlink="http://www.w3.org/1999/xlink">
 <defs>
  <style type="text/css">
   <![CDATA[
    .fil0 {fill:url(#id0)}
   ]]>
  </style>
  <linearGradient id="id0" gradientUnits="userSpaceOnUse" x1="2538.15" y1="424.52" x2="461.85" y2="2075.48">
   <stop offset="0" style="stop-opacity:1; stop-color:#D5188C"/>
   <stop offset="1" style="stop-opacity:1; stop-color:#7019B5"/>
  </linearGradient>
 </defs>
 <g id="Слой_x0020_1">
  <metadata id="CorelCorpID_0Corel-Layer"/>
  <path class="fil0" d="M168 2077l655 0c27,64 63,124 107,177 -5,1 -10,2 -16,2l-775 0c-32,0 -58,-26 -58,-58l0 -34c0,-48 39,-87 87,-87zm1285 -862c329,0 596,268 596,600 0,331 -267,599 -596,599 -328,0 -595,-268 -595,-599 0,-332 267,-600 595,-600zm-229 738l2 -2 129 0c0,39 10,67 29,83 19,17 44,25 75,25 30,0 53,-7 68,-22 15,-14 22,-34 22,-60 0,-25 -7,-45 -21,-60 -15,-15 -40,-30 -77,-44 -69,-23 -120,-51 -154,-81 -33,-31 -50,-75 -50,-131 0,-52 17,-94 50,-127 34,-33 79,-52 136,-58l0 -98 73 0 0 99c55,8 99,29 130,65 32,35 47,81 46,138l-1 2 -132 0c0,-33 -7,-59 -23,-77 -15,-18 -36,-27 -63,-27 -29,0 -50,8 -62,23 -13,15 -19,35 -19,60 0,24 6,43 20,57 13,14 39,29 77,45 69,23 120,50 154,82 34,32 51,76 51,131 0,54 -17,96 -50,128 -34,32 -80,51 -138,57l0 91 -72 0 0 -91c-59,-5 -107,-25 -145,-59 -38,-33 -56,-83 -55,-149zm891 181l717 0c48,0 87,39 87,87l0 34c0,32 -26,58 -58,58l-775 0c-32,0 -59,-26 -59,-58l0 -34c0,-48 40,-87 88,-87zm0 -833l717 0c48,0 87,39 87,87l0 34c0,32 -26,58 -58,58l-775 0c-32,0 -59,-26 -59,-58l0 -34c0,-48 40,-87 88,-87zm0 208l717 0c48,0 87,40 87,88l0 33c0,32 -26,58 -58,58l-738 0c-10,-58 -29,-114 -53,-166 13,-8 28,-13 45,-13zm13 208l704 0c48,0 87,40 87,88l0 33c0,32 -26,58 -58,58l-731 0c3,-26 5,-54 5,-81 0,-33 -2,-66 -7,-98zm-2 209l706 0c48,0 87,39 87,87l0 33c0,32 -26,59 -58,59l-775 0c-5,0 -10,-1 -14,-2 26,-55 44,-115 54,-177zm-1015 -1007l717 0c48,0 87,39 87,87l0 34c0,32 -26,58 -58,58l-775 0c-32,0 -59,-26 -59,-58l0 -34c0,-48 40,-87 88,-87zm0 208l717 0c48,0 87,39 87,88l0 33c0,17 -7,33 -20,44 -119,-102 -273,-164 -442,-164 -159,0 -306,55 -422,148 -5,-8 -8,-18 -8,-28l0 -33c0,-49 40,-88 88,-88zm0 -1041l717 0c48,0 87,39 87,87l0 34c0,32 -26,58 -58,58l-775 0c-32,0 -59,-26 -59,-58l0 -34c0,-48 40,-87 88,-87zm0 208l717 0c48,0 87,39 87,88l0 33c0,32 -26,58 -58,58l-775 0c-32,0 -59,-26 -59,-58l0 -33c0,-49 40,-88 88,-88zm0 208l717 0c48,0 87,40 87,88l0 33c0,32 -26,58 -58,58l-775 0c-32,0 -59,-26 -59,-58l0 -33c0,-48 40,-88 88,-88zm0 209l717 0c48,0 87,39 87,87l0 33c0,32 -26,59 -58,59l-775 0c-32,0 -59,-27 -59,-59l0 -33c0,-48 40,-87 88,-87zm-943 116l717 0c48,0 88,40 88,88l0 33c0,32 -26,58 -59,58l-775 0c-32,0 -58,-26 -58,-58l0 -33c0,-48 39,-88 87,-88zm0 209l717 0c48,0 88,39 88,87l0 33c0,32 -26,59 -59,59l-775 0c-32,0 -58,-27 -58,-59l0 -33c0,-48 39,-87 87,-87zm0 208l717 0c47,0 86,37 88,84 -29,29 -56,61 -79,95l-755 0c-32,0 -58,-26 -58,-58l0 -34c0,-48 39,-87 87,-87zm0 208l707 0c-34,55 -61,115 -79,179l-657 0c-32,0 -58,-26 -58,-58l0 -33c0,-49 39,-88 87,-88zm0 208l621 0c-11,50 -17,102 -17,155 0,8 0,16 0,24l-633 0c-32,0 -58,-26 -58,-58l0 -33c0,-48 39,-88 87,-88zm0 209l606 0c5,62 18,122 38,179l-673 0c-32,0 -58,-27 -58,-59l0 -33c0,-48 39,-87 87,-87z"/>
 </g>
</svg>
