<?xml version="1.0" encoding="UTF-8"?>
<!DOCTYPE svg PUBLIC "-//W3C//DTD SVG 1.1//EN" "http://www.w3.org/Graphics/SVG/1.1/DTD/svg11.dtd">
<!-- Creator: CorelDRAW X8 -->
<svg xmlns="http://www.w3.org/2000/svg" xml:space="preserve" width="30mm" height="25mm" version="1.1" style="shape-rendering:geometricPrecision; text-rendering:geometricPrecision; image-rendering:optimizeQuality; fill-rule:evenodd; clip-rule:evenodd"
viewBox="0 0 3000 2500"
 xmlns:xlink="http://www.w3.org/1999/xlink">
 <defs>
  <style type="text/css">
   <![CDATA[
    .fil0 {fill:url(#id0)}
   ]]>
  </style>
  <linearGradient id="id0" gradientUnits="userSpaceOnUse" x1="2503.79" y1="568.27" x2="496.21" y2="1931.75">
   <stop offset="0" style="stop-opacity:1; stop-color:#D5188C"/>
   <stop offset="1" style="stop-opacity:1; stop-color:#7019B5"/>
  </linearGradient>
 </defs>
 <g id="Слой_x0020_1">
  <metadata id="CorelCorpID_0Corel-Layer"/>
  <path class="fil0" d="M2706 2430l-2412 0c-13,0 -23,-10 -23,-23l0 -2314c0,-13 10,-23 23,-23l95 0c13,0 23,10 23,23l0 2174c0,13 10,23 22,23l2272 0c13,0 23,10 23,22l0 95c0,13 -10,23 -23,23zm-185 -244l-298 0 0 -1872c0,-38 26,-69 59,-69l180 0c33,0 59,31 59,69l0 1872zm-418 0l-298 0 0 -1508c0,-37 27,-68 59,-68l181 0c32,0 58,31 58,68l0 1508zm-418 0l-297 0 0 -1178c0,-38 26,-69 58,-69l181 0c32,0 58,31 58,69l0 1178zm-418 0l-297 0 0 -877c0,-38 26,-69 58,-69l181 0c32,0 58,31 58,69l0 877zm-418 0l-297 0 0 -519c0,-38 26,-69 58,-69l181 0c32,0 58,31 58,69l0 519z"/>
 </g>
</svg>
