<?xml version="1.0" encoding="UTF-8"?>
<!DOCTYPE svg PUBLIC "-//W3C//DTD SVG 1.1//EN" "http://www.w3.org/Graphics/SVG/1.1/DTD/svg11.dtd">
<!-- Creator: CorelDRAW X8 -->
<svg xmlns="http://www.w3.org/2000/svg" xml:space="preserve" width="30mm" height="25mm" version="1.1" style="shape-rendering:geometricPrecision; text-rendering:geometricPrecision; image-rendering:optimizeQuality; fill-rule:evenodd; clip-rule:evenodd"
viewBox="0 0 3000 2500"
 xmlns:xlink="http://www.w3.org/1999/xlink">
 <defs>
  <style type="text/css">
   <![CDATA[
    .fil0 {fill:url(#id0)}
   ]]>
  </style>
  <linearGradient id="id0" gradientUnits="userSpaceOnUse" x1="868.705" y1="264.587" x2="2131.3" y2="2235.41">
   <stop offset="0" style="stop-opacity:1; stop-color:#D5188C"/>
   <stop offset="1" style="stop-opacity:1; stop-color:#7019B5"/>
  </linearGradient>
 </defs>
 <g id="Слой_x0020_1">
  <metadata id="CorelCorpID_0Corel-Layer"/>
  <path class="fil0" d="M2041 2414l-1082 0c0,0 -1,0 -1,0 -115,0 -208,-93 -208,-208 0,0 0,0 0,0l0 -1600 235 0 0 1229c183,17 328,162 346,344l338 0c18,-182 345,-161 345,-345l0 -1228 236 0 0 1600c0,0 0,0 0,0 0,115 -93,208 -208,208 0,0 -1,0 -1,0l0 0zm-1491 -1744l0 -349 1900 0 0 349c0,2 0,3 0,5 0,65 53,118 118,118 64,0 117,-53 117,-118 0,-2 0,-3 0,-5l0 -467c0,0 0,0 0,0 0,-65 -53,-117 -117,-117 0,0 0,0 -1,0l-2134 0c-1,0 -1,0 -1,0 -64,0 -117,52 -117,117 0,0 0,0 0,0l0 467c0,2 0,3 0,5 0,65 53,118 117,118 65,0 118,-53 118,-118 0,-2 1,-4 0,-5l0 0zm671 795c-7,1 -14,3 -21,6 -6,3 -12,6 -18,10 -5,3 -10,8 -14,13 -6,7 -10,15 -13,23 -2,7 -3,13 -3,20 0,2 0,3 0,4 1,8 3,17 6,24 4,8 9,16 15,22l259 281c4,4 8,8 13,11 5,4 11,7 17,9 6,3 12,4 18,5 7,2 14,2 20,2 7,0 13,0 20,-2 6,-1 12,-2 18,-5 6,-2 12,-5 17,-9 5,-3 9,-7 13,-11l259 -282c3,-3 6,-6 8,-10 3,-4 5,-7 7,-11 1,-4 3,-8 4,-12 1,-4 2,-8 2,-12l0 -9 0 -9 -2 -9c-1,-3 -3,-6 -4,-9 -4,-6 -8,-12 -13,-18 -6,-5 -12,-10 -19,-13 -7,-4 -14,-7 -22,-9 -8,-2 -16,-3 -24,-3l-110 0c7,-215 13,-557 13,-772 0,-10 -2,-21 -6,-31 -5,-10 -11,-20 -19,-27 -8,-9 -18,-15 -29,-19 -11,-5 -23,-7 -35,-7 0,0 -1,0 -1,0l-155 0c0,0 0,0 0,0 -12,0 -24,2 -35,7 -11,4 -21,11 -29,19 -8,8 -14,17 -18,27 -4,10 -6,21 -6,31 0,215 5,557 12,772l-104 0c-7,0 -14,1 -21,3l0 0z"/>
 </g>
</svg>
