<?xml version="1.0" encoding="UTF-8"?>
<!DOCTYPE svg PUBLIC "-//W3C//DTD SVG 1.1//EN" "http://www.w3.org/Graphics/SVG/1.1/DTD/svg11.dtd">
<!-- Creator: CorelDRAW X8 -->
<svg xmlns="http://www.w3.org/2000/svg" xml:space="preserve" width="12mm" height="12mm" version="1.1" style="shape-rendering:geometricPrecision; text-rendering:geometricPrecision; image-rendering:optimizeQuality; fill-rule:evenodd; clip-rule:evenodd"
viewBox="0 0 1200 1200"
 xmlns:xlink="http://www.w3.org/1999/xlink">
 <defs>
  <style type="text/css">
   <![CDATA[
    .fil0 {fill:#2B2A29}
   ]]>
  </style>
 </defs>
 <g id="Слой_x0020_1">
  <metadata id="CorelCorpID_0Corel-Layer"/>
  <path class="fil0" d="M371 501l107 0 0 323 -107 0 0 -323zm168 0l109 0 0 46c3,-3 -2,2 3,-3 15,-20 25,-36 51,-43 51,-18 112,-3 145,46 10,17 23,53 23,78l0 199 -107 0 0 -176c0,-81 -71,-81 -97,-53 -8,8 -18,25 -18,38l0 191 -109 0c0,-36 3,-64 3,-102l0 -198c0,-10 -3,-13 -3,-23l0 0zm-173 -94l0 -10c0,-69 120,-66 120,-3l0 13c0,33 -33,48 -67,48 -27,0 -53,-23 -53,-48zm-244 196c0,33 5,76 13,104 12,51 30,101 58,145 5,5 8,10 13,18 46,68 112,124 186,162 45,23 124,46 188,46 101,0 140,-8 223,-43 13,-5 26,-13 39,-21 30,-17 73,-48 99,-73l73 -97c39,-66 64,-150 64,-226 0,-87 -10,-153 -46,-224 -23,-46 -38,-69 -68,-107l-28 -28c-72,-71 -194,-137 -333,-137 -92,0 -201,33 -275,86 -10,8 -20,16 -33,26l-46 43c-23,23 -48,61 -63,87 -23,38 -41,89 -51,129 -8,31 -13,71 -13,110l0 0z"/>
 </g>
</svg>
