<?xml version="1.0" encoding="UTF-8"?>
<!DOCTYPE svg PUBLIC "-//W3C//DTD SVG 1.1//EN" "http://www.w3.org/Graphics/SVG/1.1/DTD/svg11.dtd">
<!-- Creator: CorelDRAW X8 -->
<svg xmlns="http://www.w3.org/2000/svg" xml:space="preserve" width="12mm" height="12mm" version="1.1" style="shape-rendering:geometricPrecision; text-rendering:geometricPrecision; image-rendering:optimizeQuality; fill-rule:evenodd; clip-rule:evenodd"
viewBox="0 0 1200 1200"
 xmlns:xlink="http://www.w3.org/1999/xlink">
 <defs>
  <style type="text/css">
   <![CDATA[
    .fil0 {fill:#2B2A29}
   ]]>
  </style>
 </defs>
 <g id="Слой_x0020_1">
  <metadata id="CorelCorpID_0Corel-Layer"/>
  <path class="fil0" d="M529 600c2,3 2,15 2,18l0 257 112 0 0 -275 74 0 10 -94 -84 0c0,-15 -3,-69 8,-76l76 -8 0 -94c-163,-10 -196,29 -196,178l-58 0 0 94 56 0zm71 -478c264,0 478,214 478,478 0,264 -214,478 -478,478 -264,0 -478,-214 -478,-478 0,-264 214,-478 478,-478l0 0z"/>
 </g>
</svg>
