<?xml version="1.0" encoding="UTF-8"?>
<!DOCTYPE svg PUBLIC "-//W3C//DTD SVG 1.1//EN" "http://www.w3.org/Graphics/SVG/1.1/DTD/svg11.dtd">
<!-- Creator: CorelDRAW X8 -->
<svg xmlns="http://www.w3.org/2000/svg" xml:space="preserve" width="12mm" height="12mm" version="1.1" style="shape-rendering:geometricPrecision; text-rendering:geometricPrecision; image-rendering:optimizeQuality; fill-rule:evenodd; clip-rule:evenodd"
viewBox="0 0 1200 1200"
 xmlns:xlink="http://www.w3.org/1999/xlink">
 <defs>
  <style type="text/css">
   <![CDATA[
    .fil0 {fill:#2B2A29}
   ]]>
  </style>
 </defs>
 <g id="Слой_x0020_1">
  <metadata id="CorelCorpID_0Corel-Layer"/>
  <path class="fil0" d="M531 512c6,-13 8,-27 8,-42 -1,-37 -12,-69 -41,-94 -13,-12 -29,-19 -47,-18 -24,2 -38,17 -48,37 -9,21 -10,43 -6,65 6,31 20,57 45,76 33,24 72,14 89,-24zm371 -50c-32,0 -64,0 -96,0 -13,0 -12,-1 -12,11 0,28 0,57 0,86 0,2 0,4 0,7 -6,0 -13,0 -20,0 0,-5 0,-10 0,-14 0,-28 0,-56 0,-83 0,-6 -1,-7 -6,-7 -30,0 -60,0 -90,0 -3,0 -6,0 -9,0 0,-9 0,-17 0,-26 35,0 69,0 105,0 0,-33 0,-66 0,-100 7,0 13,0 20,0 0,3 0,6 0,9 0,28 0,56 0,84 0,6 2,7 7,7 33,0 65,0 98,0 1,0 2,0 3,0 0,8 0,17 0,26zm-320 372c-25,17 -53,26 -82,30 -42,6 -83,5 -123,-8 -28,-9 -53,-23 -68,-50 -20,-38 -17,-99 35,-129 27,-16 56,-24 86,-28 16,-2 33,-2 49,-3 1,0 3,0 4,-1 0,-9 -4,-18 -12,-23 -6,-5 -8,-10 -8,-18 0,-8 0,-17 0,-27 -10,0 -20,1 -29,0 -26,-2 -50,-10 -70,-27 -16,-13 -25,-30 -30,-49 -7,-27 -6,-54 2,-80 10,-30 31,-50 58,-65 31,-16 64,-24 98,-24 45,0 90,0 135,0 2,0 3,0 5,0 0,6 -3,9 -7,10 -10,3 -19,5 -29,7 -9,2 -17,3 -26,5 -2,1 -4,2 -7,4 2,1 3,2 5,3 21,10 33,27 36,50 4,21 5,43 2,64 -4,23 -15,41 -32,56 -9,9 -19,17 -28,25 -1,1 -2,1 -3,2 -17,16 -17,31 -1,46 14,13 30,25 44,38 17,15 31,31 40,52 17,43 5,108 -44,140zm18 -710c-263,0 -476,213 -476,476 0,263 213,476 476,476 263,0 476,-213 476,-476 0,-263 -213,-476 -476,-476zm-63 556c-25,-12 -52,-15 -79,-12 -29,4 -54,14 -75,33 -33,31 -32,75 3,104 23,19 51,26 81,26 2,0 4,0 6,0 33,-1 63,-11 88,-34 20,-19 30,-43 21,-71 -8,-22 -24,-36 -45,-46z"/>
 </g>
</svg>
