<?xml version="1.0" encoding="UTF-8"?>
<!DOCTYPE svg PUBLIC "-//W3C//DTD SVG 1.1//EN" "http://www.w3.org/Graphics/SVG/1.1/DTD/svg11.dtd">
<!-- Creator: CorelDRAW X8 -->
<svg xmlns="http://www.w3.org/2000/svg" xml:space="preserve" width="12mm" height="12mm" version="1.1" style="shape-rendering:geometricPrecision; text-rendering:geometricPrecision; image-rendering:optimizeQuality; fill-rule:evenodd; clip-rule:evenodd"
viewBox="0 0 1200 1200"
 xmlns:xlink="http://www.w3.org/1999/xlink">
 <defs>
  <style type="text/css">
   <![CDATA[
    .fil0 {fill:#4BB5C5}
   ]]>
  </style>
 </defs>
 <g id="Слой_x0020_1">
  <metadata id="CorelCorpID_0Corel-Layer"/>
  <path class="fil0" d="M947 401c-175,0 -351,-1 -526,0 -6,-38 -13,-76 -20,-113 -1,-5 -5,-10 -9,-14 -4,-3 -10,-5 -15,-5 -41,0 -82,0 -123,0 -13,0 -26,12 -25,26 0,14 11,25 25,25l0 0 101 0c13,72 26,144 39,216 5,30 10,59 15,88 6,36 12,78 20,113 0,0 0,1 0,1 1,5 5,10 9,13 5,4 10,6 16,6 133,0 271,3 404,0 16,0 38,2 43,-19 22,-99 47,-197 69,-296 4,-18 0,-41 -23,-41zm-477 252l88 -143 75 103 76 -126 71 131 62 -163 32 12 -88 233 -78 -144 -73 118 -75 -102 -61 99 -29 -18zm353 132c40,0 73,33 73,73 0,40 -33,73 -73,73 -40,0 -73,-33 -73,-73 0,-40 33,-73 73,-73zm-312 0c41,0 73,33 73,73 0,40 -32,73 -73,73 -40,0 -73,-33 -73,-73 0,-40 33,-73 73,-73z"/>
 </g>
</svg>
