<?xml version="1.0" encoding="UTF-8"?>
<!DOCTYPE svg PUBLIC "-//W3C//DTD SVG 1.1//EN" "http://www.w3.org/Graphics/SVG/1.1/DTD/svg11.dtd">
<!-- Creator: CorelDRAW X8 -->
<svg xmlns="http://www.w3.org/2000/svg" xml:space="preserve" width="12mm" height="12mm" version="1.1" style="shape-rendering:geometricPrecision; text-rendering:geometricPrecision; image-rendering:optimizeQuality; fill-rule:evenodd; clip-rule:evenodd"
viewBox="0 0 1200 1200"
 xmlns:xlink="http://www.w3.org/1999/xlink">
 <defs>
  <style type="text/css">
   <![CDATA[
    .fil0 {fill:black}
   ]]>
  </style>
 </defs>
 <g id="Слой_x0020_1">
  <metadata id="CorelCorpID_0Corel-Layer"/>
  <path class="fil0" d="M806 580c-1,-54 -8,-105 -19,-151 30,-16 58,-36 83,-60 49,58 80,131 85,211l-149 0zm64 251c-25,-24 -53,-44 -83,-60 11,-46 18,-97 19,-151l149 0c-5,80 -36,153 -85,211zm-625 -211l149 0c1,54 8,105 19,151 -30,16 -58,36 -83,60 -49,-58 -80,-131 -85,-211zm85 -251c25,24 53,44 83,60 -11,46 -18,97 -19,151l-149 0c5,-80 36,-153 85,-211zm250 67c-41,-2 -81,-12 -120,-28 27,-86 71,-148 120,-161l0 189zm0 40l0 104 -147 0c1,-47 7,-92 17,-133 42,17 86,26 130,29zm0 144l0 104c-45,3 -89,12 -130,29 -10,-41 -16,-86 -17,-133l147 0zm0 144l0 189c-49,-13 -93,-75 -120,-161 38,-16 78,-26 120,-28zm40 0c42,2 82,12 120,28 -27,86 -71,148 -120,161l0 -189zm0 -40l0 -104 147 0c-1,47 -7,92 -17,133 -41,-17 -85,-26 -130,-29zm0 -144l0 -104c44,-3 88,-12 130,-29 10,41 16,86 17,133l-147 0zm0 -144l0 -189c49,13 93,75 120,161 -39,16 -79,26 -120,28zm88 -175c51,17 97,44 135,80 -21,19 -43,36 -67,49 -17,-53 -40,-97 -68,-129zm-284 129c-24,-13 -46,-30 -67,-49 38,-36 84,-63 135,-80 -28,32 -51,76 -68,129zm0 420c17,53 40,97 68,129 -51,-17 -97,-44 -135,-80 21,-19 43,-35 67,-49zm352 0c24,14 46,30 67,49 -38,36 -84,63 -135,80 28,-32 51,-76 68,-129z"/>
 </g>
</svg>
