<?xml version="1.0" encoding="UTF-8"?>
<!DOCTYPE svg PUBLIC "-//W3C//DTD SVG 1.1//EN" "http://www.w3.org/Graphics/SVG/1.1/DTD/svg11.dtd">
<!-- Creator: CorelDRAW X8 -->
<svg xmlns="http://www.w3.org/2000/svg" xml:space="preserve" width="12mm" height="12mm" version="1.1" style="shape-rendering:geometricPrecision; text-rendering:geometricPrecision; image-rendering:optimizeQuality; fill-rule:evenodd; clip-rule:evenodd"
viewBox="0 0 1200 1200"
 xmlns:xlink="http://www.w3.org/1999/xlink">
 <defs>
  <style type="text/css">
   <![CDATA[
    .fil0 {fill:#2B2A29}
   ]]>
  </style>
 </defs>
 <g id="Слой_x0020_1">
  <metadata id="CorelCorpID_0Corel-Layer"/>
  <path class="fil0" d="M974 385c-189,0 -378,0 -567,0 -7,-41 -14,-81 -21,-122 -1,-5 -6,-11 -10,-14 -5,-4 -11,-6 -17,-6 -44,0 -88,0 -132,0 -14,0 -28,13 -28,28 1,15 13,27 28,27l0 0 109 0c14,78 27,156 41,233 6,32 12,63 17,95 7,39 12,84 22,122 0,0 0,0 0,1 1,5 5,11 10,14 4,4 10,6 16,6 144,0 293,4 436,0 17,0 42,2 47,-20 24,-107 51,-213 74,-320 5,-19 0,-44 -25,-44zm-514 272l95 -154 80 111 83 -135 77 140 66 -176 34 13 -94 252 -85 -156 -78 128 -81 -111 -66 107 -31 -19zm381 143c43,0 78,35 78,78 0,44 -35,79 -78,79 -44,0 -79,-35 -79,-79 0,-43 35,-78 79,-78zm-337 0c44,0 79,35 79,78 0,44 -35,79 -79,79 -43,0 -78,-35 -78,-79 0,-43 35,-78 78,-78z"/>
 </g>
</svg>
