<?xml version="1.0" encoding="UTF-8"?>
<!DOCTYPE svg PUBLIC "-//W3C//DTD SVG 1.1//EN" "http://www.w3.org/Graphics/SVG/1.1/DTD/svg11.dtd">
<!-- Creator: CorelDRAW X8 -->
<svg xmlns="http://www.w3.org/2000/svg" xml:space="preserve" width="12mm" height="12mm" version="1.1" style="shape-rendering:geometricPrecision; text-rendering:geometricPrecision; image-rendering:optimizeQuality; fill-rule:evenodd; clip-rule:evenodd"
viewBox="0 0 1200 1200"
 xmlns:xlink="http://www.w3.org/1999/xlink">
 <defs>
  <style type="text/css">
   <![CDATA[
    .fil0 {fill:#2B2A29}
   ]]>
  </style>
 </defs>
 <g id="Слой_x0020_1">
  <metadata id="CorelCorpID_0Corel-Layer"/>
  <path class="fil0" d="M600 223c-98,0 -191,39 -261,106l-75 -75c-5,-5 -11,-7 -17,-7 -3,0 -6,0 -9,2 -9,3 -15,12 -15,21l0 212c0,13 11,24 24,24l212 0c9,0 18,-6 22,-15 3,-8 1,-19 -6,-25l-70 -70c53,-50 122,-79 195,-79 156,0 283,127 283,283 0,156 -127,283 -283,283 -147,0 -270,-115 -282,-261 -1,-13 -11,-22 -23,-22l-47 0c-7,0 -13,3 -18,7 -4,5 -6,12 -6,18 13,197 178,352 376,352 208,0 377,-169 377,-377 0,-208 -169,-377 -377,-377zm129 330l-82 0 0 -153c0,-7 -5,-12 -12,-12l-70 0c-7,0 -12,5 -12,12l0 165 0 23 0 47c0,7 5,12 12,12l70 0 94 0c7,0 12,-5 12,-12l0 -47 0 -23c0,-7 -5,-12 -12,-12z"/>
 </g>
</svg>
