<?xml version="1.0" encoding="UTF-8"?>
<!DOCTYPE svg PUBLIC "-//W3C//DTD SVG 1.1//EN" "http://www.w3.org/Graphics/SVG/1.1/DTD/svg11.dtd">
<!-- Creator: CorelDRAW X8 -->
<svg xmlns="http://www.w3.org/2000/svg" xml:space="preserve" width="12mm" height="12mm" version="1.1" style="shape-rendering:geometricPrecision; text-rendering:geometricPrecision; image-rendering:optimizeQuality; fill-rule:evenodd; clip-rule:evenodd"
viewBox="0 0 1200 1200"
 xmlns:xlink="http://www.w3.org/1999/xlink">
 <defs>
  <style type="text/css">
   <![CDATA[
    .fil0 {fill:#2B2A29}
   ]]>
  </style>
 </defs>
 <g id="Слой_x0020_1">
  <metadata id="CorelCorpID_0Corel-Layer"/>
  <path class="fil0" d="M653 535c-18,17 -28,40 -28,65 0,51 43,93 94,93l251 0 0 -185 -251 0c-25,0 -48,9 -66,27zm-29 -29c-26,25 -40,58 -40,94 0,74 61,133 135,133l251 0 0 125c0,33 -27,60 -60,60l-620 0c-33,0 -60,-27 -60,-60l0 -516c0,-33 27,-59 60,-59l620 0c33,0 60,26 60,59l0 125 -251 0c-36,0 -70,14 -95,39zm154 94c0,26 -21,47 -47,47 -27,0 -48,-21 -48,-47 0,-26 21,-47 48,-47 26,0 47,21 47,47z"/>
 </g>
</svg>
