<?xml version="1.0" encoding="UTF-8"?>
<!DOCTYPE svg PUBLIC "-//W3C//DTD SVG 1.1//EN" "http://www.w3.org/Graphics/SVG/1.1/DTD/svg11.dtd">
<!-- Creator: CorelDRAW X8 -->
<svg xmlns="http://www.w3.org/2000/svg" xml:space="preserve" width="12mm" height="12mm" version="1.1" style="shape-rendering:geometricPrecision; text-rendering:geometricPrecision; image-rendering:optimizeQuality; fill-rule:evenodd; clip-rule:evenodd"
viewBox="0 0 1200 1200"
 xmlns:xlink="http://www.w3.org/1999/xlink">
 <defs>
  <style type="text/css">
   <![CDATA[
    .fil0 {fill:#2B2A29}
   ]]>
  </style>
 </defs>
 <g id="Слой_x0020_1">
  <metadata id="CorelCorpID_0Corel-Layer"/>
  <path class="fil0" d="M953 723l0 -22c0,-32 -27,-59 -59,-59l-341 0c-33,0 -59,27 -59,59l0 22 459 0zm-221 -375l101 101 0 -73 2 0c34,0 61,28 61,61l0 140 57 0 0 -140c0,-65 -53,-117 -118,-117l-2 0 0 -73 -101 101zm-264 504l-101 -101 0 73 -2 0c-34,0 -61,-28 -61,-61l0 -140 -57 0 0 140c0,65 53,117 118,117l2 0 0 73 101 -101zm-221 -468l0 115c0,32 27,59 59,59l341 0c33,0 59,-27 59,-59l0 -115 -459 0zm77 113l0 -56 176 0 0 56 -176 0zm382 -169l0 -22c0,-32 -26,-59 -59,-59l-341 0c-32,0 -59,27 -59,59l0 22 459 0zm-212 451l0 115c0,32 26,59 59,59l341 0c32,0 59,-27 59,-59l0 -115 -459 0zm76 113l0 -56 127 0 0 56 -127 0z"/>
 </g>
</svg>
