<?xml version="1.0" encoding="UTF-8"?>
<!DOCTYPE svg PUBLIC "-//W3C//DTD SVG 1.1//EN" "http://www.w3.org/Graphics/SVG/1.1/DTD/svg11.dtd">
<!-- Creator: CorelDRAW X8 -->
<svg xmlns="http://www.w3.org/2000/svg" xml:space="preserve" width="12mm" height="12mm" version="1.1" style="shape-rendering:geometricPrecision; text-rendering:geometricPrecision; image-rendering:optimizeQuality; fill-rule:evenodd; clip-rule:evenodd"
viewBox="0 0 1200 1200"
 xmlns:xlink="http://www.w3.org/1999/xlink">
 <defs>
  <style type="text/css">
   <![CDATA[
    .fil0 {fill:black}
   ]]>
  </style>
 </defs>
 <g id="Слой_x0020_1">
  <metadata id="CorelCorpID_0Corel-Layer"/>
  <path class="fil0" d="M400 393l-89 -46c-40,41 -69,89 -86,141l88 51c-10,40 -10,82 0,122l-88 51c9,26 20,51 35,75 15,24 32,47 51,66l89 -46c33,28 71,49 112,61l3 98c55,11 113,12 170,0l3 -98c20,-6 40,-14 59,-25 19,-10 37,-23 53,-36l89 46c40,-41 69,-89 86,-141l-88 -51c10,-40 10,-82 0,-122l88 -51c-9,-26 -20,-51 -35,-75 -15,-24 -32,-47 -51,-66l-89 46c-33,-28 -71,-49 -112,-61l-3 -98c-55,-11 -113,-12 -170,0l-3 98c-20,6 -40,14 -59,25 -19,10 -37,23 -53,36l0 0zm116 68c80,-44 183,-18 230,59 46,77 19,175 -62,219 -80,44 -183,18 -230,-59 -46,-77 -19,-175 62,-219z"/>
 </g>
</svg>
