<?xml version="1.0" encoding="UTF-8"?>
<!DOCTYPE svg PUBLIC "-//W3C//DTD SVG 1.1//EN" "http://www.w3.org/Graphics/SVG/1.1/DTD/svg11.dtd">
<!-- Creator: CorelDRAW X8 -->
<svg xmlns="http://www.w3.org/2000/svg" xml:space="preserve" width="12mm" height="12mm" version="1.1" style="shape-rendering:geometricPrecision; text-rendering:geometricPrecision; image-rendering:optimizeQuality; fill-rule:evenodd; clip-rule:evenodd"
viewBox="0 0 1200 1200"
 xmlns:xlink="http://www.w3.org/1999/xlink">
 <defs>
  <style type="text/css">
   <![CDATA[
    .fil0 {fill:black}
   ]]>
  </style>
 </defs>
 <g id="Слой_x0020_1">
  <metadata id="CorelCorpID_0Corel-Layer"/>
  <path class="fil0" d="M936 461l-94 -23 15 -95 -95 15 -23 -94 -82 50 -57 -78 -57 78 -82 -50 -23 94 -95 -15 15 95 -94 23 50 82 -78 57 78 57 -50 82 94 23 -15 95 95 -15 23 94 82 -50 57 78 57 -78 82 50 23 -94 95 15 -15 -95 94 -23 -50 -82 78 -57 -78 -57 50 -82zm-277 278c0,-33 -27,-59 -59,-59 -32,0 -59,26 -59,59 0,32 27,58 59,58 32,0 59,-26 59,-58zm-54 -324c-28,-1 -54,8 -73,28 -20,18 -31,45 -31,71l69 0c0,-8 3,-16 10,-22 5,-5 13,-9 22,-8 16,1 29,14 30,30 1,13 -8,25 -20,30 -27,11 -45,38 -45,68l0 11 69 0 0 -11c0,-2 1,-4 2,-5 39,-15 64,-54 63,-97 -4,-52 -46,-93 -96,-95z"/>
 </g>
</svg>
