<?xml version="1.0" encoding="UTF-8"?>
<!DOCTYPE svg PUBLIC "-//W3C//DTD SVG 1.1//EN" "http://www.w3.org/Graphics/SVG/1.1/DTD/svg11.dtd">
<!-- Creator: CorelDRAW X8 -->
<svg xmlns="http://www.w3.org/2000/svg" xml:space="preserve" width="8mm" height="8mm" version="1.1" style="shape-rendering:geometricPrecision; text-rendering:geometricPrecision; image-rendering:optimizeQuality; fill-rule:evenodd; clip-rule:evenodd"
viewBox="0 0 800 800"
 xmlns:xlink="http://www.w3.org/1999/xlink">
 <defs>
  <style type="text/css">
   <![CDATA[
    .fil0 {fill:#4BB5C5;fill-rule:nonzero}
   ]]>
  </style>
 </defs>
 <g id="Слой_x0020_1">
  <metadata id="CorelCorpID_0Corel-Layer"/>
  <path class="fil0" d="M449 452l1 -2 2 -1c20,-21 32,-49 32,-80 0,-32 -13,-60 -34,-81 -21,-21 -49,-34 -81,-34 -32,0 -60,13 -81,34 -21,21 -34,49 -34,81 0,32 13,60 34,81 21,21 49,34 81,34 31,0 59,-12 80,-32zm73 21l84 83c14,14 14,36 0,50 -14,14 -36,14 -50,0l-83 -84c-30,21 -66,32 -104,32 -51,0 -97,-20 -131,-54 -33,-34 -54,-80 -54,-131 0,-51 21,-97 54,-131l0 0c34,-33 80,-54 131,-54 51,0 97,21 131,54 34,34 54,80 54,131 0,38 -11,74 -32,104z"/>
 </g>
</svg>
