<?xml version="1.0" encoding="UTF-8"?>
<!DOCTYPE svg PUBLIC "-//W3C//DTD SVG 1.1//EN" "http://www.w3.org/Graphics/SVG/1.1/DTD/svg11.dtd">
<!-- Creator: CorelDRAW X8 -->
<svg xmlns="http://www.w3.org/2000/svg" xml:space="preserve" width="8mm" height="8mm" version="1.1" style="shape-rendering:geometricPrecision; text-rendering:geometricPrecision; image-rendering:optimizeQuality; fill-rule:evenodd; clip-rule:evenodd"
viewBox="0 0 800 800"
 xmlns:xlink="http://www.w3.org/1999/xlink">
 <defs>
  <style type="text/css">
   <![CDATA[
    .fil0 {fill:#4BB5C5}
   ]]>
  </style>
 </defs>
 <g id="Слой_x0020_1">
  <metadata id="CorelCorpID_0Corel-Layer"/>
  <path class="fil0" d="M712 392c-33,-39 -145,-204 -312,-204 -167,0 -279,165 -312,204 -6,7 -6,18 0,26 32,39 145,194 312,194 167,0 279,-155 312,-194 6,-8 6,-18 0,-26zm-271 5c-17,0 -32,-15 -32,-32 0,-14 9,-26 21,-30 -9,-5 -19,-7 -30,-7 -42,0 -77,35 -77,77 0,42 35,76 77,76 42,0 77,-33 77,-75 0,-10 -2,-20 -6,-29 -4,12 -16,20 -30,20zm-41 138c-72,0 -130,-58 -130,-130 0,-72 58,-130 130,-130 72,0 130,58 130,130 0,72 -58,130 -130,130z"/>
 </g>
</svg>
