<?xml version="1.0" encoding="UTF-8"?>
<!DOCTYPE svg PUBLIC "-//W3C//DTD SVG 1.1//EN" "http://www.w3.org/Graphics/SVG/1.1/DTD/svg11.dtd">
<!-- Creator: CorelDRAW X8 -->
<svg xmlns="http://www.w3.org/2000/svg" xml:space="preserve" width="40mm" height="40mm" version="1.1" style="shape-rendering:geometricPrecision; text-rendering:geometricPrecision; image-rendering:optimizeQuality; fill-rule:evenodd; clip-rule:evenodd"
viewBox="0 0 4000 4000"
 xmlns:xlink="http://www.w3.org/1999/xlink">
 <defs>
  <style type="text/css">
   <![CDATA[
    .fil0 {fill:#2B2A29}
   ]]>
  </style>
 </defs>
 <g id="Слой_x0020_1">
  <metadata id="CorelCorpID_0Corel-Layer"/>
  <path class="fil0" d="M3674 2120c66,0 119,-54 119,-120 0,-66 -53,-119 -119,-119l-359 0 0 -479 359 0c66,0 119,-53 119,-119 0,-66 -53,-120 -119,-120l-359 0 0 -239c0,-132 -107,-239 -239,-239l-239 0 0 -359c0,-66 -53,-119 -119,-119 -66,0 -120,53 -120,119l0 359 -478 0 0 -359c0,-66 -54,-119 -120,-119 -66,0 -119,53 -119,119l0 359 -479 0 0 -359c0,-66 -53,-119 -119,-119 -66,0 -120,53 -120,119l0 359 -239 0c-132,0 -239,107 -239,239l0 239 -359 0c-66,0 -119,53 -119,120 0,66 53,119 119,119l359 0 0 479 -359 0c-66,0 -119,53 -119,119 0,66 53,120 119,120l359 0 0 478 -359 0c-66,0 -119,54 -119,120 0,66 53,119 119,119l359 0 0 239c0,132 107,239 239,239l239 0 0 359c0,66 54,119 120,119 66,0 119,-53 119,-119l0 -359 479 0 0 359c0,66 53,119 119,119 66,0 120,-53 120,-119l0 -359 478 0 0 359c0,66 54,119 120,119 66,0 119,-53 119,-119l0 -359 239 0c132,0 239,-107 239,-239l0 -239 359 0c66,0 119,-53 119,-119 0,-66 -53,-120 -119,-120l-359 0 0 -478 359 0zm-1527 766l0 -275c275,-15 467,-85 491,-343 19,-208 -79,-301 -234,-338 88,-42 144,-131 144,-229 0,-15 -1,-31 -4,-46l0 0c-18,-193 -183,-258 -397,-275l0 -268 -164 0 0 262 -131 0 0 -262 -163 0 0 268 -104 0 -226 0 0 175c0,0 121,0 120,0 2,0 5,0 8,0 42,0 77,30 83,72l0 306 0 0 0 432c-2,30 -27,54 -57,54 -2,0 -3,0 -4,0 -1,0 -119,0 -119,0l-26 194 330 0 0 275 163 0 0 -271 131 0 0 267 159 2zm-290 -1319c91,0 383,-29 383,163 0,193 -291,163 -383,163l0 -326zm0 852l0 -360c111,0 458,-32 458,183l0 0c0,200 -347,177 -458,177z"/>
 </g>
</svg>
