<?xml version="1.0" encoding="UTF-8"?>
<!DOCTYPE svg PUBLIC "-//W3C//DTD SVG 1.1//EN" "http://www.w3.org/Graphics/SVG/1.1/DTD/svg11.dtd">
<!-- Creator: CorelDRAW X8 -->
<svg xmlns="http://www.w3.org/2000/svg" xml:space="preserve" width="32mm" height="32mm" version="1.1" style="shape-rendering:geometricPrecision; text-rendering:geometricPrecision; image-rendering:optimizeQuality; fill-rule:evenodd; clip-rule:evenodd"
viewBox="0 0 3200 3200"
 xmlns:xlink="http://www.w3.org/1999/xlink">
 <defs>
  <style type="text/css">
   <![CDATA[
    .fil0 {fill:#2B2A29}
   ]]>
  </style>
 </defs>
 <g id="Слой_x0020_1">
  <metadata id="CorelCorpID_0Corel-Layer"/>
  <path class="fil0" d="M2013 2215c0,2 1,4 1,7 0,29 -24,52 -53,52 -2,0 -4,0 -7,0l-513 0c-87,0 -144,0 -144,0l0 0c53,-52 101,-109 144,-169l844 -1201 0 -217 -578 0 0 -299 -331 0 0 299 -311 0c-122,0 -180,55 -180,180l0 286 315 0 0 -114c0,-2 0,-4 0,-7 0,-29 23,-52 53,-52 2,0 4,0 6,0l460 0c87,0 143,0 143,0l0 0c-52,53 -100,110 -143,171l-845 1196 0 220 502 0 0 245 331 0 0 -245 439 0c122,0 180,-53 180,-180l0 -286 -313 0 0 114z"/>
 </g>
</svg>
