<?xml version="1.0" encoding="UTF-8"?>
<!DOCTYPE svg PUBLIC "-//W3C//DTD SVG 1.1//EN" "http://www.w3.org/Graphics/SVG/1.1/DTD/svg11.dtd">
<!-- Creator: CorelDRAW X8 -->
<svg xmlns="http://www.w3.org/2000/svg" xml:space="preserve" width="32mm" height="32mm" version="1.1" style="shape-rendering:geometricPrecision; text-rendering:geometricPrecision; image-rendering:optimizeQuality; fill-rule:evenodd; clip-rule:evenodd"
viewBox="0 0 3200 3200"
 xmlns:xlink="http://www.w3.org/1999/xlink">
 <defs>
  <style type="text/css">
   <![CDATA[
    .fil0 {fill:#2B2A29}
   ]]>
  </style>
 </defs>
 <g id="Слой_x0020_1">
  <metadata id="CorelCorpID_0Corel-Layer"/>
  <path class="fil0" d="M2081 1398c46,14 93,21 141,22 0,0 0,0 0,0 275,0 497,-222 497,-497 0,-274 -222,-497 -497,-497 -274,0 -497,223 -497,497 0,130 51,255 142,348l-89 149 -319 0c-57,-219 -255,-373 -481,-373 -275,0 -497,223 -497,497 0,275 222,497 497,497 226,0 424,-153 481,-373l313 0 124 249c-104,93 -164,226 -164,366 0,271 220,491 491,491 271,0 490,-220 490,-491 0,-271 -219,-491 -490,-491 -36,0 -71,4 -106,12l-124 -249 88 -157z"/>
 </g>
</svg>
