<?xml version="1.0" encoding="UTF-8"?>
<!DOCTYPE svg PUBLIC "-//W3C//DTD SVG 1.1//EN" "http://www.w3.org/Graphics/SVG/1.1/DTD/svg11.dtd">
<!-- Creator: CorelDRAW X8 -->
<svg xmlns="http://www.w3.org/2000/svg" xml:space="preserve" width="32mm" height="32mm" version="1.1" style="shape-rendering:geometricPrecision; text-rendering:geometricPrecision; image-rendering:optimizeQuality; fill-rule:evenodd; clip-rule:evenodd"
viewBox="0 0 3200 3200"
 xmlns:xlink="http://www.w3.org/1999/xlink">
 <defs>
  <style type="text/css">
   <![CDATA[
    .fil0 {fill:#2B2A29}
   ]]>
  </style>
 </defs>
 <g id="Слой_x0020_1">
  <metadata id="CorelCorpID_0Corel-Layer"/>
  <path class="fil0" d="M1243 2301l308 0c433,0 715,-261 715,-703 0,-442 -282,-699 -715,-699l-570 0 0 219 128 0 0 411 -175 0 0 247 175 0 0 390c0,96 40,135 134,135zm125 -1183l169 0c277,0 460,164 460,480 0,315 -179,483 -460,483l-126 0c-1,1 -3,1 -4,1 -22,0 -40,-18 -40,-40 0,-1 0,-3 1,-4l0 -262 224 0 0 -247 -224 0 0 -411z"/>
 </g>
</svg>
